<svg width="27" height="26" viewBox="0 0 27 26" fill="none" xmlns="http://www.w3.org/2000/svg">
<g clip-path="url(#clip0_118_512)">
<path d="M19.6875 7.04169H19.6988M7.875 2.16669H19.125C22.2316 2.16669 24.75 4.59181 24.75 7.58335V18.4167C24.75 21.4082 22.2316 23.8334 19.125 23.8334H7.875C4.7684 23.8334 2.25 21.4082 2.25 18.4167V7.58335C2.25 4.59181 4.7684 2.16669 7.875 2.16669ZM18 12.3175C18.1388 13.2191 17.9789 14.1399 17.543 14.949C17.107 15.758 16.4173 16.414 15.5718 16.8238C14.7264 17.2336 13.7683 17.3762 12.8338 17.2314C11.8993 17.0866 11.036 16.6618 10.3667 16.0173C9.69741 15.3728 9.2562 14.5415 9.10583 13.6416C8.95545 12.7417 9.10357 11.8191 9.52912 11.0049C9.95466 10.1908 10.636 9.52657 11.4761 9.10678C12.3163 8.68699 13.2725 8.53299 14.2088 8.66669C15.1638 8.80306 16.048 9.23161 16.7307 9.88902C17.4134 10.5464 17.8584 11.3979 18 12.3175Z" stroke="#F3F3F3" stroke-width="4" stroke-linecap="round" stroke-linejoin="round"/>
</g>
<defs>
<clipPath id="clip0_118_512">
<rect width="27" height="26" fill="white"/>
</clipPath>
</defs>
</svg>
