<svg width="78" height="38" viewBox="0 0 78 38" fill="none" xmlns="http://www.w3.org/2000/svg">
<path d="M11.9509 0.983999C19.6522 0.983999 23.5029 4.65333 23.5029 11.992C23.5029 19.3307 19.6522 23 11.9509 23H2.41488V0.983999H11.9509ZM9.48688 17.72H11.8229C14.7882 17.72 16.2709 16.1307 16.2709 12.952V11.032C16.2709 7.85333 14.7882 6.264 11.8229 6.264H9.48688V17.72Z" fill="white"/>
<path d="M31.7866 23L31.3226 21.448H27.4666L27.0026 23H23.3866L27.4026 11.992H31.5146L35.5306 23H31.7866ZM28.2026 18.984H30.5866L29.4346 15.064H29.3706L28.2026 18.984ZM42.3363 23H38.8003V18.728L34.4323 11.992H38.4963L40.6083 15.656H40.6723L42.7843 11.992H46.6403L42.3363 18.728V23Z" fill="white"/>
<path d="M8.17075 25.992C12.0214 25.992 13.9468 27.8267 13.9468 31.496C13.9468 35.1653 12.0214 37 8.17075 37H3.40275V25.992H8.17075ZM6.93875 34.36H8.10675C9.58942 34.36 10.3308 33.5653 10.3308 31.976V31.016C10.3308 29.4267 9.58942 28.632 8.10675 28.632H6.93875V34.36ZM26.3039 29.368C26.3039 30.04 26.1225 30.648 25.7599 31.192C25.3972 31.736 24.8692 32.136 24.1759 32.392L26.6239 37H22.6559L20.7039 32.984H19.3919V37H15.8559V25.992H22.5919C23.3812 25.992 24.0532 26.1467 24.6079 26.456C25.1732 26.7547 25.5945 27.1653 25.8719 27.688C26.1599 28.2 26.3039 28.76 26.3039 29.368ZM22.7039 29.512C22.7039 29.224 22.6079 28.984 22.4159 28.792C22.2239 28.6 21.9892 28.504 21.7119 28.504H19.3919V30.536H21.7119C21.9892 30.536 22.2239 30.44 22.4159 30.248C22.6079 30.0453 22.7039 29.8 22.7039 29.512ZM28.309 25.992H37.829V28.632H31.845V30.152H36.965V32.68H31.845V34.36H37.941V37H28.309V25.992ZM47.2319 37L46.7679 35.448H42.9119L42.4479 37H38.8319L42.8479 25.992H46.9599L50.9759 37H47.2319ZM43.6479 32.984H46.0319L44.8799 29.064H44.8159L43.6479 32.984ZM61.765 37V33.032C61.765 32.5413 61.781 32.04 61.813 31.528C61.8557 31.0053 61.8983 30.568 61.941 30.216C61.9837 29.864 62.0103 29.64 62.021 29.544H61.957L59.925 37H57.157L55.109 29.56H55.045C55.0557 29.656 55.0823 29.88 55.125 30.232C55.1783 30.5733 55.2263 31.0053 55.269 31.528C55.3117 32.04 55.333 32.5413 55.333 33.032V37H52.085V25.992H57.077L58.741 32.344H58.805L60.453 25.992H65.269V37H61.765ZM72.0424 25.8C73.4504 25.8 74.6077 26.088 75.5144 26.664C76.421 27.2293 76.885 28.072 76.9064 29.192V29.384H73.5944V29.32C73.5944 29 73.477 28.7333 73.2424 28.52C73.0077 28.3067 72.6504 28.2 72.1704 28.2C71.701 28.2 71.3384 28.2693 71.0824 28.408C70.837 28.5467 70.7144 28.7173 70.7144 28.92C70.7144 29.208 70.885 29.4213 71.2264 29.56C71.5677 29.6987 72.117 29.8427 72.8744 29.992C73.7597 30.1733 74.485 30.3653 75.0504 30.568C75.6264 30.76 76.1277 31.08 76.5544 31.528C76.981 31.976 77.1997 32.584 77.2104 33.352C77.2104 34.6533 76.7677 35.6187 75.8824 36.248C75.0077 36.8773 73.8344 37.192 72.3624 37.192C70.645 37.192 69.3064 36.904 68.3464 36.328C67.397 35.752 66.9224 34.7333 66.9224 33.272H70.2664C70.2664 33.8267 70.4104 34.2 70.6984 34.392C70.9864 34.5733 71.4344 34.664 72.0424 34.664C72.4904 34.664 72.8584 34.616 73.1464 34.52C73.445 34.424 73.5944 34.2267 73.5944 33.928C73.5944 33.6613 73.429 33.464 73.0984 33.336C72.7784 33.1973 72.2504 33.0533 71.5144 32.904C70.6184 32.712 69.877 32.5147 69.2904 32.312C68.7037 32.0987 68.1917 31.752 67.7544 31.272C67.317 30.792 67.0984 30.1413 67.0984 29.32C67.0984 28.1147 67.5624 27.2293 68.4904 26.664C69.429 26.088 70.613 25.8 72.0424 25.8Z" fill="white"/>
</svg>
