<svg width="26" height="26" viewBox="0 0 26 26" fill="none" xmlns="http://www.w3.org/2000/svg">
<path d="M25.3835 6.12565C25.2294 5.98953 25.0752 5.98953 24.767 5.98953C24.3046 5.98953 23.9963 5.98953 23.5339 5.8534C20.9137 5.3089 19.0642 3.53927 18.91 1.22513V0.680628C18.91 0.272251 18.6018 0 18.1394 0H13.3614C12.899 0 12.5907 0.272251 12.5907 0.680628V17.6963C12.5907 19.3298 11.0494 20.555 9.354 20.555C8.27509 20.555 7.35031 20.1466 6.73379 19.466C5.65489 18.2408 5.96314 16.3351 7.35031 15.3822C7.96683 14.9738 8.58335 14.9738 9.81639 14.9738C9.97052 14.9738 10.2788 14.9738 10.4329 14.8377C10.587 14.7016 10.7412 14.5654 10.7412 14.2932V9.80105C10.7412 9.5288 10.4329 9.12042 10.1246 9.12042C7.65857 8.84817 5.1925 9.39267 3.34294 10.7539C1.64751 12.1152 0.414477 14.0209 0.106218 16.3351C-0.356171 18.9215 0.722736 21.644 2.72642 23.4136C4.57598 25.1832 7.19618 26 9.66226 26C12.1283 26 14.5944 25.1832 16.444 23.5497C18.2935 21.9162 19.3724 19.7382 19.3724 17.4241V9.93717C21.222 10.7539 23.2257 11.2984 25.2294 11.2984C25.6917 11.2984 26 11.0262 26 10.6178V6.53403C25.6917 6.39791 25.5376 6.26178 25.3835 6.12565Z" fill="white"/>
</svg>
