<svg width="31" height="31" viewBox="0 0 31 31" fill="none" xmlns="http://www.w3.org/2000/svg">
<g clip-path="url(#clip0_118_511)">
<path d="M29.1142 8.29252C28.9608 7.67951 28.6483 7.11784 28.2083 6.66425C27.7683 6.21066 27.2164 5.88122 26.6084 5.70919C24.3867 5.16669 15.5 5.16669 15.5 5.16669C15.5 5.16669 6.61336 5.16669 4.39169 5.76085C3.78364 5.93288 3.23175 6.26233 2.79177 6.71592C2.35178 7.16951 2.03929 7.73117 1.88586 8.34419C1.47926 10.5989 1.28037 12.8861 1.29169 15.1771C1.2772 17.4854 1.4761 19.79 1.88586 22.0617C2.05502 22.6557 2.37451 23.196 2.81346 23.6304C3.25242 24.0648 3.796 24.3787 4.39169 24.5417C6.61336 25.1359 15.5 25.1359 15.5 25.1359C15.5 25.1359 24.3867 25.1359 26.6084 24.5417C27.2164 24.3697 27.7683 24.0402 28.2083 23.5866C28.6483 23.133 28.9608 22.5714 29.1142 21.9584C29.5177 19.7207 29.7165 17.4509 29.7084 15.1771C29.7229 12.8688 29.524 10.5642 29.1142 8.29252Z" stroke="white" stroke-width="3" stroke-linecap="round" stroke-linejoin="round"/>
<path d="M12.5938 19.4009L20.0209 15.1771L12.5938 10.9534V19.4009Z" stroke="white" stroke-width="3" stroke-linecap="round" stroke-linejoin="round"/>
</g>
<defs>
<clipPath id="clip0_118_511">
<rect width="31" height="31" fill="white"/>
</clipPath>
</defs>
</svg>
